<?xml version="1.0" encoding="UTF-8"?>
<svg id="Layer_2" data-name="Layer 2" xmlns="http://www.w3.org/2000/svg" viewBox="0 0 1200 117.682">
  <g id="Capa_1" data-name="Capa 1">
    <g>
      <path d="M77.202,101.669v11.151H0L58.76,16.176H7.435V5.024h71.34L19.872,101.669h57.329Z"/>
      <path d="M220.634,101.669h29.737v11.151h-41.746V5.024h12.009v96.645Z"/>
      <path d="M362.887,5.024h20.301c16.155,0,29.308,2.145,42.032,13.01,12.295,10.58,17.871,25.019,17.871,41.032,0,15.726-5.719,29.594-17.585,40.174-12.867,11.437-25.734,13.581-42.604,13.581h-20.015V5.024ZM383.617,101.669c13.153,0,24.162-1.858,34.026-11.151,8.864-8.292,13.439-19.586,13.439-31.595,0-12.295-4.718-24.162-14.011-32.31-9.865-8.721-20.73-10.436-33.454-10.436h-8.721v85.493h8.721Z"/>
      <g>
        <path d="M282.097,82.349l-13.01,30.594h-13.153L305.686,0l48.465,112.943h-13.296l-12.724-30.594-4.718-11.151-18.014-43.176-18.442,43.176-4.861,11.151Z"/>
        <path d="M317.189,73.409c0,6.647-5.361,12.009-11.795,12.009-6.648,0-12.223-5.361-12.223-12.009h24.018Z"/>
      </g>
      <g>
        <path d="M467.11,82.349l-13.01,30.594h-13.153L490.699,0l48.465,112.943h-13.296l-12.724-30.594-4.718-11.151-18.014-43.176-18.442,43.176-4.861,11.151Z"/>
        <path d="M502.202,73.409c0,6.647-5.361,12.009-11.795,12.009-6.648,0-12.223-5.361-12.223-12.009h24.018Z"/>
      </g>
      <path d="M754.346,112.821h-12.009V5.024h17.727c9.293,0,18.872.286,26.735,5.719,8.006,5.576,12.152,15.012,12.152,24.59,0,8.721-3.574,17.585-10.293,23.16-7.292,6.005-16.584,7.148-25.591,7.148h-8.721v47.179ZM754.346,54.491h8.006c13.296,0,24.59-4.003,24.59-19.443,0-17.585-14.154-18.871-28.164-18.871h-4.432v38.315Z"/>
      <path d="M857.883,26.041c-4.289-7.435-9.435-11.724-18.586-11.724-9.578,0-17.87,6.862-17.87,16.727,0,9.293,9.578,13.582,16.87,16.87l7.148,3.146c14.011,6.147,25.877,13.153,25.877,30.309,0,18.871-15.154,33.311-33.883,33.311-17.299,0-30.166-11.152-33.597-27.879l11.723-3.288c1.573,11.008,10.008,20.015,21.588,20.015s22.159-8.864,22.159-21.016c0-12.581-9.865-16.87-19.872-21.445l-6.576-2.859c-12.581-5.719-23.447-12.152-23.447-27.593,0-16.727,14.154-27.45,30.166-27.45,12.009,0,22.16,6.147,27.878,16.727l-9.578,6.148Z"/>
      <path d="M913.568,112.821h-12.009V16.176h-26.02V5.024h64.335v11.152h-26.306v96.645Z"/>
      <path d="M1082.939,112.821h-12.009V5.024h12.009v107.797Z"/>
      <path d="M1103.927.449l84.064,88.067V5.024h12.009v112.658l-84.065-87.924v83.063h-12.009V.449Z"/>
      <circle cx="569.368" cy="59.065" r="12.009"/>
      <path d="M75.756,26.628l1.053.511c.002-.343.018-.682.026-1.023l-1.08.512Z"/>
      <g>
        <g>
          <path d="M629.117,53.418h82.442v10.723h-82.442v-10.723Z"/>
          <path d="M711.558,104.529v13.153l-102.306-59.545L711.558.139v13.296l-80.676,44.988,80.676,46.106Z"/>
        </g>
        <path d="M713.577,74.188c5.535,0,10,4.464,10,9.822,0,5.536-4.464,10.178-10,10.178v-20Z"/>
        <path d="M713.577,23.371c5.535,0,10,4.464,10,9.822,0,5.536-4.464,10.178-10,10.178v-20Z"/>
      </g>
      <g>
        <path d="M94.191,53.418h82.442v10.723h-82.442v-10.723Z"/>
        <path d="M176.632,104.529v13.153l-102.306-59.545L176.632.139v13.296l-80.676,44.988,80.676,46.106Z"/>
      </g>
      <path d="M178.651,23.371c5.535,0,10,4.464,10,9.822,0,5.536-4.464,10.178-10,10.178v-20Z"/>
      <path d="M178.651,74.188c5.535,0,10,4.464,10,9.822,0,5.536-4.464,10.178-10,10.178v-20Z"/>
      <g>
        <g>
          <path d="M956.185,53.418h82.442v10.723h-82.442v-10.723Z"/>
          <path d="M1038.627,104.529v13.153l-102.306-59.545L1038.627.139v13.296l-80.676,44.988,80.676,46.106Z"/>
        </g>
        <path d="M1040.645,74.188c5.535,0,10,4.464,10,9.822,0,5.536-4.464,10.178-10,10.178v-20Z"/>
        <path d="M1040.645,23.371c5.535,0,10,4.464,10,9.822,0,5.536-4.464,10.178-10,10.178v-20Z"/>
      </g>
    </g>
  </g>
</svg>