<svg width="1201" height="127" viewBox="0 0 1201 127" fill="none" xmlns="http://www.w3.org/2000/svg">
<path d="M82.2454 110.006V121.744H0.97998L62.8309 20.0103H8.80255V8.27246H83.8991L21.8983 110.006H82.2454Z" fill="black"/>
<path d="M209.015 110.006H240.314V121.744H196.37V8.27246H209.007V110.006H209.011H209.015Z" fill="black"/>
<path d="M359.808 8.27246H381.176C398.183 8.27246 412.025 10.5301 425.425 21.968C438.366 33.106 444.239 48.3012 444.239 65.1582C444.239 82.0152 438.22 96.3106 425.729 107.449C412.183 119.486 398.641 121.744 380.881 121.744H359.812V8.27246H359.808ZM381.63 110.006C395.476 110.006 407.064 108.049 417.448 98.2683C426.778 89.5378 431.593 77.65 431.593 65.0123C431.593 52.3746 426.628 39.5789 416.848 31.0025C406.464 21.8221 395.026 20.0185 381.635 20.0185H372.454V110.014H381.635L381.63 110.006Z" fill="black"/>
<path d="M274.765 89.6716L261.07 121.878H247.224L299.599 2.98718L350.616 121.874H336.62L323.229 89.6676L318.264 77.9297L299.303 32.4778L279.889 77.9297L274.769 89.6676H274.765V89.6716Z" fill="black"/>
<path d="M311.706 80.2603C311.706 87.256 306.064 92.8979 299.291 92.8979C292.518 92.8979 286.422 87.256 286.422 80.2603H311.706Z" fill="black"/>
<path d="M455.823 121.874H441.978L494.344 2.98718L545.361 121.874H531.365L494.044 32.4819L455.819 121.874H455.823Z" fill="black"/>
<path d="M506.455 80.2603C506.455 87.256 500.813 92.8979 494.04 92.8979C487.267 92.8979 481.171 87.256 481.171 80.2603H506.455Z" fill="black"/>
<path d="M574 75.0722C580.982 75.0722 586.642 69.4123 586.642 62.4304C586.642 55.4486 580.982 49.7887 574 49.7887C567.019 49.7887 561.359 55.4486 561.359 62.4304C561.359 69.4123 567.019 75.0722 574 75.0722Z" fill="black"/>
<path d="M80.7214 31.0186L81.8279 31.5537C81.8279 31.1929 81.8441 30.8363 81.8522 30.4755L80.7133 31.0105H80.7173L80.7214 31.0186Z" fill="black"/>
<path d="M94.6844 56.6993H169.765V67.9427H94.6844V56.6993Z" fill="black"/>
<path d="M177.968 108.312L96.5449 61.9482L177.968 16.7071V2.79669L73.7784 61.6482L177.968 122.064V108.312Z" fill="black"/>
<path d="M752.922 121.744H740.284V8.27246H758.945C768.725 8.27246 778.809 8.57645 787.09 14.2914C795.516 20.1644 799.882 30.0946 799.882 40.1747C799.882 49.3551 796.12 58.6854 789.047 64.5543C781.371 70.8772 771.591 72.081 762.106 72.081H752.926V121.744H752.922ZM752.922 60.3431H761.348C775.344 60.3431 787.232 56.1319 787.232 39.8748C787.232 21.3641 772.333 20.0103 757.587 20.0103H752.918V60.3431H752.922Z" fill="black"/>
<path d="M861.911 30.3985C857.396 22.576 851.977 18.0567 842.35 18.0567C832.724 18.0567 823.536 25.2794 823.536 35.6676C823.536 45.4478 833.62 49.963 841.293 53.4244L848.819 56.7358C863.565 63.2086 876.056 70.5813 876.056 88.638C876.056 108.502 860.107 123.702 840.393 123.702C822.182 123.702 808.636 111.964 805.025 94.3529L817.367 90.8916C819.021 102.479 827.901 111.96 840.089 111.96C852.277 111.96 863.414 102.629 863.414 89.8378C863.414 77.0461 853.03 72.081 842.496 67.2658L835.573 64.2584C822.328 58.2395 810.894 51.4667 810.894 35.2136C810.894 17.6028 825.793 6.32288 842.65 6.32288C855.292 6.32288 865.976 12.7957 871.999 23.9338L861.915 30.4066V30.3985H861.911Z" fill="black"/>
<path d="M920.527 121.744H907.886V20.0185H880.494V8.28058H948.218V20.0185H920.527V121.752V121.744Z" fill="black"/>
<path d="M1099.85 3.46136L1188.34 96.1607V8.27244H1200.98V126.863L1112.49 34.3098V121.744H1099.85V3.46136H1099.85Z" fill="black"/>
<path d="M1077.04 121.744H1064.4V23.1029H1077.04V121.744Z" fill="black"/>
<path d="M1083.37 0C1083.37 6.99571 1077.72 12.6377 1070.95 12.6377C1064.18 12.6377 1058.08 6.99571 1058.08 0H1083.37Z" fill="black"/>
<path d="M640.05 56.6993H715.131V67.9427H640.05V56.6993Z" fill="black"/>
<path d="M723.334 108.312L641.907 61.9482L723.334 16.7071V2.79669L619.14 61.6482L723.334 122.064V108.312Z" fill="black"/>
<path d="M959.368 56.6993H1034.45V67.9427H959.368V56.6993Z" fill="black"/>
<path d="M1042.65 108.312L961.225 61.9482L1042.65 16.7071V2.79669L938.458 61.6482L1042.65 122.064V108.312Z" fill="black"/>
</svg>
