<svg width="1879" height="283" viewBox="0 0 1879 283" fill="none" xmlns="http://www.w3.org/2000/svg">
<path d="M1732.12 282.884L1693.65 196.231L1695.98 195.065C1729.01 258.792 1764.37 277.444 1800.12 277.444C1839.75 277.444 1869.29 251.409 1869.29 217.991C1869.29 191.568 1853.35 168.642 1802.84 150.379L1771.75 139.11C1739.5 127.453 1707.64 106.858 1707.64 68.7776C1707.64 30.697 1739.5 8.15944 1777.97 8.15944C1800.12 8.15944 1817.22 15.5424 1825.38 15.5424C1831.98 15.5424 1835.87 12.4338 1833.15 1.94221L1835.48 1.16504L1875.11 77.3263L1872.78 78.492C1837.81 16.7082 1800.9 11.2681 1777.97 11.2681C1739.89 11.2681 1715.41 32.2513 1715.41 62.1718C1715.41 91.3151 1736.78 107.247 1779.14 122.79L1810.22 134.059C1853.74 149.99 1879 170.196 1879 206.723C1879 253.741 1840.14 280.552 1799.73 280.552C1772.92 280.552 1749.99 269.672 1741.05 269.672C1734.84 269.672 1732.12 273.947 1734.45 282.107L1732.12 282.884Z" fill="black"/>
<path d="M1431.33 276.667V273.947C1453.09 272.781 1463.58 263.844 1474.07 237.032L1551.4 38.4686L1539.74 12.0453C1544.02 12.0453 1546.35 12.4339 1549.46 12.4339C1552.18 12.4339 1555.29 12.0453 1558.4 12.0453L1662.15 257.238C1668.36 272.004 1676.91 273.947 1688.57 273.947V276.667H1683.91C1679.24 276.667 1668.75 275.501 1657.48 275.501C1645.05 275.501 1633.39 276.667 1629.89 276.667H1624.45V273.947C1640.77 273.947 1645.44 269.284 1645.44 263.455C1645.44 261.901 1645.05 259.958 1643.49 256.461L1620.96 203.614H1490.78L1477.96 236.255C1475.24 242.861 1472.91 252.575 1472.91 257.626C1472.91 266.175 1478.74 273.947 1498.94 273.947V276.667H1494.28C1486.51 276.667 1472.91 275.501 1463.97 275.501C1459.31 275.501 1444.93 276.667 1439.88 276.667H1431.33ZM1492.34 200.117H1619.4L1553.34 43.1315L1492.34 200.117Z" fill="black"/>
<path d="M1222.11 276.667V273.947C1239.21 273.947 1241.15 272.392 1241.15 258.792V30.3085C1241.15 16.3197 1239.21 14.7653 1222.11 14.7653V12.0453H1224.83C1232.61 12.0453 1236.88 12.4339 1249.31 12.4339C1265.25 12.4339 1270.69 12.0453 1282.73 12.0453H1326.25C1376.38 12.0453 1410.19 38.08 1410.19 83.5436C1410.19 118.904 1386.87 153.099 1326.64 153.099H1325.86C1335.19 168.254 1342.96 173.305 1353.45 173.305L1389.98 235.866C1409.41 268.895 1418.35 272.781 1437.78 273.947V276.667C1421.45 276.667 1420.29 275.89 1407.08 275.89C1402.41 275.89 1398.53 276.667 1394.64 276.667L1322.37 153.099H1257.86V258.792C1257.86 272.392 1259.81 273.947 1276.9 273.947V276.667H1274.18C1266.41 276.667 1262.14 275.501 1249.31 275.501C1236.88 275.501 1232.61 276.667 1224.83 276.667H1222.11ZM1257.86 149.602H1326.25C1371.72 149.602 1390.76 132.893 1390.76 83.1551C1390.76 38.4686 1374.44 15.5425 1326.25 15.5425H1257.86V149.602Z" fill="black"/>
<path d="M1055.45 276.667V273.947C1072.55 273.947 1074.49 272.393 1074.49 258.793V15.5431H1034.08C1018.15 15.5431 1011.15 16.3203 1001.44 30.6976C991.722 45.075 981.23 64.5039 966.464 94.813L964.133 93.6473L998.328 0L1000.66 0.38857C999.493 7.77155 1002.99 12.0459 1013.48 12.0459H1054.28C1058.56 12.0459 1068.27 12.4345 1083.04 12.4345C1097.41 12.4345 1107.13 12.0459 1111.4 12.0459H1153.76C1162.7 12.0459 1166.19 7.77155 1165.03 0.38857L1167.36 0L1201.55 93.6473L1199.22 94.813C1184.46 64.5039 1173.96 45.075 1164.25 30.6976C1154.54 16.3203 1148.71 15.5431 1131.61 15.5431H1091.2V258.793C1091.2 272.393 1093.53 273.947 1110.24 273.947V276.667H1107.52C1099.75 276.667 1095.47 275.502 1083.04 275.502C1070.21 275.502 1065.94 276.667 1058.17 276.667H1055.45Z" fill="black"/>
<path d="M836.797 280.553C771.905 280.553 726.053 223.821 726.053 144.162C726.053 64.8924 772.294 8.16003 836.797 8.16003C901.301 8.16003 947.542 64.8924 947.542 144.162C947.542 223.821 901.69 280.553 836.797 280.553ZM836.797 277.444C897.027 277.444 928.113 231.981 928.113 144.162C928.113 56.7323 897.027 11.2687 836.797 11.2687C776.568 11.2687 745.482 56.7323 745.482 144.162C745.482 231.981 776.568 277.444 836.797 277.444Z" fill="black"/>
<path d="M551.209 282.884L512.74 196.231L515.072 195.065C548.101 258.792 583.461 277.444 619.211 277.444C658.846 277.444 688.377 251.409 688.377 217.991C688.377 191.568 672.446 168.642 621.931 150.379L590.844 139.11C558.592 127.453 526.729 106.858 526.729 68.7776C526.729 30.697 558.592 8.15944 597.062 8.15944C619.211 8.15944 636.308 15.5424 644.468 15.5424C651.074 15.5424 654.96 12.4338 652.24 1.94221L654.571 1.16504L694.206 77.3263L691.875 78.492C656.903 16.7082 619.988 11.2681 597.062 11.2681C558.981 11.2681 534.501 32.2513 534.501 62.1718C534.501 91.3151 555.872 107.247 598.227 122.79L629.314 134.059C672.834 149.99 698.092 170.196 698.092 206.723C698.092 253.741 659.234 280.552 618.822 280.552C592.01 280.552 569.084 269.672 560.147 269.672C553.929 269.672 551.209 273.947 553.541 282.107L551.209 282.884Z" fill="black"/>
<path d="M378.021 280.553C313.129 280.553 267.276 223.821 267.276 144.162C267.276 64.8924 313.517 8.16003 378.021 8.16003C442.525 8.16003 488.766 64.8924 488.766 144.162C488.766 223.821 442.914 280.553 378.021 280.553ZM378.021 277.444C438.251 277.444 469.337 231.981 469.337 144.162C469.337 56.7323 438.251 11.2687 378.021 11.2687C317.791 11.2687 286.705 56.7323 286.705 144.162C286.705 231.981 317.791 277.444 378.021 277.444Z" fill="black"/>
<path d="M0 276.667V273.947C31.4748 273.947 32.252 252.186 32.252 227.706V28.3656C26.4233 21.3712 22.5375 14.7653 8.54871 14.7653H8.16013V12.0453H8.54871C16.3203 12.0453 20.9832 12.4339 26.0347 12.4339C31.4748 12.4339 36.1377 12.0453 42.7436 12.0453L211.386 245.581V61.0061C211.386 36.5257 210.609 15.1539 178.357 14.7653V12.0453H185.74C193.123 12.0453 201.672 13.211 213.329 13.211C224.987 13.211 233.535 12.0453 241.307 12.0453H247.913V14.7653C216.438 14.7653 214.884 36.5257 214.884 61.0061V250.632L233.924 276.667C228.095 276.667 227.318 276.278 223.044 276.278C219.158 276.278 217.992 276.667 212.941 276.667L35.7492 31.4742V227.706C35.7492 252.186 37.3035 273.558 69.1669 273.947V276.667H62.1725C54.4009 276.667 45.8522 275.501 34.5834 275.501C22.5375 275.501 13.9888 276.667 6.60582 276.667H0Z" fill="black"/>
</svg>
