<svg width="1902" height="268" viewBox="0 0 1902 268" fill="none" xmlns="http://www.w3.org/2000/svg">
<path d="M1766.15 262.057L1730.57 181.915L1732.73 180.837C1763.28 239.776 1795.98 257.026 1829.05 257.026C1865.7 257.026 1893.02 232.947 1893.02 202.041C1893.02 177.603 1878.28 156.399 1831.56 139.508L1802.81 129.086C1772.98 118.304 1743.51 99.2572 1743.51 64.0377C1743.51 28.8182 1772.98 7.97401 1808.56 7.97401C1829.05 7.97401 1844.86 14.8023 1852.41 14.8023C1858.51 14.8023 1862.11 11.9272 1859.59 2.2239L1861.75 1.50513L1898.41 71.9441L1896.25 73.0222C1863.91 15.8804 1829.76 10.8491 1808.56 10.8491C1773.34 10.8491 1750.7 30.2557 1750.7 57.9282C1750.7 84.8819 1770.47 99.6165 1809.64 113.992L1838.39 124.414C1878.64 139.149 1902 157.837 1902 191.618C1902 235.104 1866.06 259.901 1828.69 259.901C1803.89 259.901 1782.69 249.838 1774.42 249.838C1768.67 249.838 1766.15 253.792 1768.31 261.339L1766.15 262.057Z" fill="black"/>
<path d="M1605.98 259.901C1545.96 259.901 1503.55 207.431 1503.55 133.758C1503.55 60.4439 1546.32 7.974 1605.98 7.974C1665.64 7.974 1708.4 60.4439 1708.4 133.758C1708.4 207.431 1666 259.901 1605.98 259.901ZM1605.98 257.026C1661.68 257.026 1690.43 214.978 1690.43 133.758C1690.43 52.8968 1661.68 10.8491 1605.98 10.8491C1550.27 10.8491 1521.52 52.8968 1521.52 133.758C1521.52 214.978 1550.27 257.026 1605.98 257.026Z" fill="black"/>
<path d="M1353.01 256.307V253.792C1368.82 253.792 1370.62 252.354 1370.62 239.776V14.8024H1333.24C1318.51 14.8024 1312.04 15.5212 1303.05 28.8183C1294.07 42.1155 1284.36 60.0846 1270.71 88.1165L1268.55 87.0383L1300.18 0.427124L1302.33 0.7865C1301.26 7.61477 1304.49 11.568 1314.19 11.568H1351.93C1355.88 11.568 1364.87 11.9274 1378.52 11.9274C1391.82 11.9274 1400.8 11.568 1404.76 11.568H1443.93C1452.2 11.568 1455.43 7.61477 1454.35 0.7865L1456.51 0.427124L1488.13 87.0383L1485.98 88.1165C1472.32 60.0846 1462.62 42.1155 1453.63 28.8183C1444.65 15.5212 1439.26 14.8024 1423.45 14.8024H1386.07V239.776C1386.07 252.354 1388.23 253.792 1403.68 253.792V256.307H1401.16C1393.98 256.307 1390.02 255.229 1378.52 255.229C1366.66 255.229 1362.71 256.307 1355.52 256.307H1353.01Z" fill="black"/>
<path d="M1160.18 259.182C1100.53 259.182 1060.99 202.041 1060.99 136.633C1060.99 49.6624 1114.18 7.97401 1161.62 7.97401C1181.03 7.97401 1197.56 14.8023 1207.26 14.8023C1215.89 14.8023 1215.89 8.33339 1214.45 2.2239L1216.61 1.50513L1255.42 78.7724L1253.26 79.8505C1222.72 24.5056 1190.01 10.8491 1161.98 10.8491C1116.34 10.8491 1074.29 47.8655 1074.29 121.539C1074.29 188.025 1112.75 248.401 1169.53 248.401C1204.39 248.401 1232.06 228.994 1251.47 197.009L1253.98 198.087C1235.29 232.588 1200.43 259.182 1160.18 259.182Z" fill="black"/>
<path d="M1001.84 267.448L999.688 266.73C1001.13 260.979 1000.41 256.307 991.423 256.307H904.452C893.311 256.307 888.28 255.948 873.545 255.948C862.404 255.948 858.451 256.307 851.263 256.307H848.748V253.792C864.561 253.792 866.358 252.354 866.358 239.776V28.459C866.358 15.5212 864.561 14.0837 848.748 14.0837V11.568H851.263C858.451 11.568 862.404 11.9274 873.545 11.9274C887.202 11.9274 891.874 11.568 901.936 11.568H985.673C995.017 11.568 996.813 7.25541 995.017 0.786525L997.173 0.067749L1034.91 78.0538L1032.75 79.1319C1016.94 55.7721 1007.95 41.0374 998.251 30.2559C987.829 18.3963 979.922 14.8024 965.547 14.8024H881.811V130.164H933.562C960.875 130.164 963.75 119.742 965.188 83.8039H967.703V180.837H965.188C963.75 145.258 960.875 133.399 933.562 133.399H881.811V253.073H970.219C984.594 253.073 992.141 251.995 1004.36 234.745C1013.7 221.447 1023.77 205.994 1037.06 182.275L1039.22 183.353L1001.84 267.448Z" fill="black"/>
<path d="M708.159 256.307V253.792C723.972 253.792 725.769 252.354 725.769 239.776V144.899L651.377 31.6933C643.111 19.1149 635.923 14.0836 621.907 14.0836V11.5679H629.814C633.048 11.5679 640.595 12.646 652.455 12.646C663.236 12.646 672.221 11.5679 675.815 11.5679H686.237V14.0836C670.784 14.0836 666.112 17.318 666.112 23.4275C666.112 25.9432 667.19 28.4589 669.346 31.6933L739.426 138.789L795.489 47.5061C799.802 40.3185 803.755 33.8496 803.755 27.7401C803.755 19.1149 798.005 14.0836 781.114 14.0836H780.755V11.5679H785.426C792.255 11.5679 803.036 12.646 811.661 12.646C815.255 12.646 829.99 11.5679 834.662 11.5679H841.85V14.0836H841.49C820.646 14.0836 811.302 27.3807 798.005 48.9437L741.222 141.305V239.776C741.222 252.354 743.379 253.792 758.832 253.792V256.307H756.317C749.129 256.307 745.176 255.229 733.675 255.229C721.816 255.229 717.863 256.307 710.675 256.307H708.159Z" fill="black"/>
<path d="M511.687 259.901C451.67 259.901 409.263 207.431 409.263 133.758C409.263 60.4439 452.029 7.974 511.687 7.974C571.344 7.974 614.111 60.4439 614.111 133.758C614.111 207.431 571.703 259.901 511.687 259.901ZM511.687 257.026C567.391 257.026 596.142 214.978 596.142 133.758C596.142 52.8968 567.391 10.8491 511.687 10.8491C455.982 10.8491 427.232 52.8968 427.232 133.758C427.232 214.978 455.982 257.026 511.687 257.026Z" fill="black"/>
<path d="M194.56 256.307V253.792C210.372 253.792 212.169 252.354 212.169 239.776V28.4589C212.169 15.5211 210.372 14.0836 194.56 14.0836V11.5679H197.075C204.263 11.5679 208.216 11.9273 219.716 11.9273C234.451 11.9273 239.482 11.5679 250.623 11.5679H290.874C337.234 11.5679 368.501 35.6465 368.501 77.6943C368.501 110.398 346.938 142.024 291.233 142.024H290.515C299.14 156.04 306.328 160.712 316.031 160.712L349.813 218.572C367.782 249.12 376.048 252.714 394.017 253.792V256.307C378.923 256.307 377.845 255.589 365.626 255.589C361.313 255.589 357.719 256.307 354.125 256.307L287.28 142.024H227.623V239.776C227.623 252.354 229.42 253.792 245.233 253.792V256.307H242.717C235.529 256.307 231.576 255.229 219.716 255.229C208.216 255.229 204.263 256.307 197.075 256.307H194.56ZM227.623 138.789H290.874C332.922 138.789 350.532 123.336 350.532 77.3349C350.532 36.0059 335.438 14.8023 290.874 14.8023H227.623V138.789Z" fill="black"/>
<path d="M0.128052 256.307V253.792C15.9409 253.792 17.7378 252.354 17.7378 239.776V28.4589C17.7378 15.5211 15.9409 14.0836 0.128052 14.0836V11.5679H2.64373C9.83138 11.5679 13.7846 11.9273 25.2848 11.9273C38.582 11.9273 43.6133 11.5679 53.3167 11.5679H97.5207C139.209 11.5679 172.632 34.9277 172.632 77.3349C172.632 120.101 139.209 143.461 97.5207 143.461H33.1912V239.057C33.1912 250.557 34.9882 253.792 52.9573 253.792H64.4575V256.307H57.2699C46.4884 256.307 42.8946 255.229 27.4411 255.229C15.2221 255.229 10.9095 256.307 2.64373 256.307H0.128052ZM33.1912 140.227H97.1613C139.209 140.227 154.663 120.101 154.663 77.3349C154.663 35.6465 139.209 14.8023 97.1613 14.8023H33.1912V140.227Z" fill="black"/>
</svg>
